<svg
    width="108"
    height="185"
    viewBox="0 0 108 185"
    fill="none"
    xmlns="http://www.w3.org/2000/svg">
<path d="M58.1455 183.989C58.1455 181.43 58.0734 178.979 58.2176 176.527C58.2537 176.131 59.0467 175.554 59.5154 175.482C75.9893 173.139 87.9573 164.415 95.239 149.599C99.3845 141.2 100.574 132.224 99.024 122.816C97.5461 113.984 94.7704 105.585 91.5621 97.2577C86.5875 84.4606 80.279 72.3124 73.7904 60.2724C70.9065 54.9372 67.7343 49.7463 64.6702 44.5194C62.255 40.4099 59.8758 36.3004 57.3885 32.227C55.7303 29.5234 53.964 26.9279 52.2336 24.2964C51.9813 23.9359 51.5487 23.6836 51.0801 23.287C50.0347 26.243 49.1696 29.0908 48.0521 31.8304C45.781 37.3097 43.6182 42.8611 40.9146 48.1602C35.5794 58.6141 29.6676 68.7437 24.5127 79.2336C20.5114 87.3805 16.9066 95.8157 13.7343 104.323C10.3819 113.263 7.96663 122.491 8.4713 132.188C9.19227 146.535 15.4646 158.035 26.7837 166.758C32.5514 171.228 39.2203 173.752 46.2857 175.266C46.3939 175.302 46.5381 175.302 46.6462 175.302C49.8545 175.734 49.8545 175.734 49.8545 178.979C49.8545 180.601 49.8545 182.187 49.8545 183.881C48.9172 183.881 48.2323 183.989 47.5474 183.881C40.0855 182.692 32.9479 180.529 26.4232 176.563C18.1682 171.589 11.6796 164.956 6.95729 156.593C4.14554 151.618 2.12685 146.355 1.08145 140.732C-0.360471 133.198 -0.180231 125.7 1.29774 118.202C3.49667 106.991 7.49801 96.4286 12.1122 86.0467C17.5194 73.8625 23.9359 62.1829 30.3885 50.5033C35.2911 41.6716 39.3284 32.4433 42.5367 22.8545C44.6636 16.51 44.9519 9.94926 45.2043 3.35247C45.2403 2.37917 45.3124 1.44192 45.3845 0.468625C45.3845 0.360481 45.5287 0.288384 45.709 0C47.5114 2.55941 49.3138 5.04673 51.008 7.60614C54.757 13.1936 58.4339 18.8171 62.1829 24.4045C70.1856 36.3004 77.215 48.773 83.8839 61.4619C88.2457 69.8251 92.5714 78.2243 96.2844 86.8398C99.6729 94.6983 102.485 102.845 105.044 111.028C107.279 118.129 108.433 125.519 107.964 133.017C106.955 148.878 100.286 161.892 88.1015 172.057C82.9826 176.347 77.215 179.555 70.8345 181.502C67.3017 182.583 63.6248 183.196 60.02 183.989C59.4433 184.097 58.9025 183.989 58.1455 183.989Z" fill="white"/>
<path d="M49.7824 165.965C47.259 165.353 44.9519 164.992 42.789 164.271C33.741 161.243 26.8919 155.475 22.3498 147.148C18.6008 140.227 17.4112 132.729 18.4927 124.871C19.7183 115.931 22.6382 107.495 26.0627 99.2043C33.1282 81.9733 42.1762 65.7877 52.0174 49.9987C52.5941 49.0614 53.1709 48.0881 53.9279 46.7544C55.2977 48.9533 56.5594 50.8639 57.6769 52.8465C62.6155 61.5341 67.6622 70.1496 72.4206 78.9453C77.6475 88.6422 82.1175 98.6996 85.6502 109.154C87.7049 115.174 89.3992 121.302 89.6515 127.682C90.2643 142.57 84.2443 154.069 71.1949 161.423C67.8064 163.334 63.8772 164.235 60.1642 165.533C59.6235 165.713 58.9746 165.641 58.1455 165.677C58.1455 163.081 58.1095 160.558 58.1816 158.071C58.1816 157.71 58.7944 157.134 59.1909 157.061C67.2657 155.511 73.3578 151.077 77.5394 144.12C81.3605 137.74 82.2617 130.855 80.7837 123.537C78.5848 112.686 74.6555 102.485 69.789 92.6075C64.8865 82.6582 59.6235 72.8532 54.3965 62.6516C53.7837 63.3004 53.5314 63.4807 53.3872 63.733C48.8091 72.1683 44.0507 80.4954 39.725 89.0388C35.1829 97.9787 31.3979 107.279 28.6582 116.94C27.6489 120.545 26.8198 124.294 26.6035 128.043C25.9546 138.28 29.9559 146.499 38.2109 152.591C41.3111 154.863 44.8077 156.377 48.6288 157.061C49.0614 157.134 49.7463 157.746 49.7463 158.143C49.8545 160.594 49.7824 163.045 49.7824 165.965Z" fill="white"/>
<path d="M58.1816 147.004C58.1816 144.625 58.0374 142.246 58.2537 139.902C58.3258 139.073 59.263 138.244 59.984 137.595C63.6248 134.135 63.6249 129.917 62.6516 125.483C60.8491 117.3 57.6048 109.622 54 101.547C52.9907 103.782 52.0174 105.549 51.3325 107.459C49.5301 112.326 47.6916 117.192 46.1776 122.131C45.3845 124.726 45.024 127.502 44.8078 130.206C44.5554 133.378 46.1776 135.721 48.5928 137.704C49.2417 138.208 49.7103 139.218 49.7824 140.047C49.9266 142.354 49.8545 144.697 49.8545 147.328C46.4299 146.463 43.7263 144.913 41.4553 142.57C36.6609 137.523 35.4713 131.575 36.9132 124.87C39.1482 114.489 43.1856 104.792 47.7637 95.275C49.6742 91.3097 51.5848 87.3444 53.5314 83.3791C53.6035 83.235 53.8198 83.1989 54.1803 82.9466C55.3698 85.2536 56.5594 87.4526 57.6409 89.7597C60.0561 94.8785 62.5074 99.9973 64.7063 105.188C67.9146 112.686 70.5461 120.364 71.6636 128.475C72.709 136.334 66.004 145.923 58.1816 147.004Z" fill="white"/>
</svg>
