<svg width="24" height="24" viewBox="0 0 24 24" fill="none" xmlns="http://www.w3.org/2000/svg">
<g opacity="0.3">
<path d="M12 23.5C12.7083 23.4987 13.3933 23.2471 13.934 22.7896C14.4747 22.3321 14.8363 21.6983 14.955 21H9.04498C9.16362 21.6983 9.52524 22.3321 10.066 22.7896C10.6067 23.2471 11.2917 23.4987 12 23.5Z" fill="white"/>
<path d="M21.907 19.2095C21.883 19.176 19.5 15.8 19.5 13V8C19.5 6.01088 18.7098 4.10322 17.3033 2.6967C15.8968 1.29018 13.9891 0.5 12 0.5C10.0109 0.5 8.10321 1.29018 6.69669 2.6967C5.29016 4.10322 4.49999 6.01088 4.49999 8V13C4.49999 15.8 2.11699 19.176 2.09299 19.2095C2.03962 19.2843 2.00787 19.3723 2.00124 19.4639C1.99461 19.5555 2.01335 19.6472 2.0554 19.7289C2.09745 19.8105 2.16119 19.8791 2.23961 19.9269C2.31804 19.9747 2.40813 20 2.49999 20H21.5C21.5918 20 21.6819 19.9747 21.7604 19.9269C21.8388 19.8791 21.9025 19.8105 21.9446 19.7289C21.9866 19.6472 22.0054 19.5555 21.9987 19.4639C21.9921 19.3723 21.9604 19.2843 21.907 19.2095Z" fill="white"/>
</g>
</svg>
