<svg xmlns="http://www.w3.org/2000/svg" viewBox="0 0 240.3247 385.4061"><g id="katman_2"><g id="katman_1-2"><path d="M240.3247,111.1323l-6.0972-5.0007-55.8669,22.3148,6.2346,8.7434,10.0014,48.6635-2.4994,39.9016-22.4613-7.476-6.2329-32.4256-11.226-19.9694-4.9914,19.9694,1.2395,29.9262,6.2439,44.9116,5.4089,21.183,65.2707,12.4933,5.4163-5.4181-.4249,8.3091-4.1583,7.0845-.8257-7.0214-64.8253-12.3858,9.1052,35.7248-3.7334,31.13L152.177,385.4061,137.21,375.4307l-7.4946-42.3937V289.376l-7.4648-33.6874L94.798,251.9571l-8.7248,36.159L79.8311,320.56l-2.4827,34.9288L58.6389,382.9326,44.9023,355.4891l2.492-39.92,4.9933-41.1708,12.4842-32.4164,4.9839-41.1709V163.3919L52.3876,178.3606,41.1708,218.2789l-16.2193-3.7407,2.492-41.1709L33.6781,142.19l13.7162-17.8837L6.2421,92.7031,0,96.455l3.7426-7.4742L9.56,85.6371,7.9547,90.8735l40.9538,31.4478,14.8406-18.8542,16.082-4.8912L61.1217,72.3551l-1.26-32.4275,2.9168-12.4767,8.3278-13.7254L85.6557,5.4089,111.0154,0l21.2108,3.3159L152.5945,18.7l4.5646,46.1344L139.7,98.53l24.9534,9.9847,12.0592,17.4588,56.1191-22.8678.8331-7.0585,5.4,6.307ZM101.8657,69.0207V50.2927L89.389,40.3173,74.0047,46.153l-2.0838,12.05,4.5944,13.3005,11.6324,6.2421ZM143.4337,50.72l-2.891-19.5538-13.308-3.7407L117.6564,37.41l5.0026,19.5426,10.7992,6.242Z"/></g></g></svg>