<svg width="24" height="24" viewBox="0 0 24 24" fill="none" xmlns="http://www.w3.org/2000/svg">
<g opacity="0.3" clip-path="url(#clip0_1_65)">
<path d="M24 9V3.75C24 3.55109 23.921 3.36032 23.7803 3.21967C23.6397 3.07902 23.4489 3 23.25 3H0.75C0.551088 3 0.360322 3.07902 0.21967 3.21967C0.0790176 3.36032 0 3.55109 0 3.75L0 9C0.79565 9 1.55871 9.31607 2.12132 9.87868C2.68393 10.4413 3 11.2044 3 12C3 12.7956 2.68393 13.5587 2.12132 14.1213C1.55871 14.6839 0.79565 15 0 15L0 20.25C0 20.4489 0.0790176 20.6397 0.21967 20.7803C0.360322 20.921 0.551088 21 0.75 21H23.25C23.4489 21 23.6397 20.921 23.7803 20.7803C23.921 20.6397 24 20.4489 24 20.25V15C23.2044 15 22.4413 14.6839 21.8787 14.1213C21.3161 13.5587 21 12.7956 21 12C21 11.2044 21.3161 10.4413 21.8787 9.87868C22.4413 9.31607 23.2044 9 24 9ZM17.25 15H6.75V13.5H17.25V15ZM17.25 10.5H6.75V9H17.25V10.5Z" fill="white"/>
</g>
<defs>
<clipPath id="clip0_1_65">
<rect width="24" height="24" fill="white"/>
</clipPath>
</defs>
</svg>
