<svg width="14" height="13" viewBox="0 0 14 13" fill="none" xmlns="http://www.w3.org/2000/svg">
<path d="M13.5511 5.18656C13.5379 5.14569 13.5134 5.10935 13.4805 5.08166C13.4477 5.05398 13.4077 5.03606 13.3652 5.02994L9.10961 4.41175L7.20648 0.555408C7.18512 0.519702 7.15487 0.490144 7.11868 0.469619C7.08249 0.449095 7.04159 0.438307 6.99998 0.438307C6.95838 0.438307 6.91748 0.449095 6.88129 0.469619C6.84509 0.490144 6.81484 0.519702 6.79348 0.555408L4.89036 4.41175L0.634358 5.02994C0.591594 5.03591 0.551372 5.05378 0.518288 5.08153C0.485204 5.10927 0.460593 5.14577 0.447268 5.18684C0.433943 5.22791 0.432441 5.2719 0.442934 5.31378C0.453428 5.35567 0.475493 5.39375 0.506608 5.42369L3.58748 8.42428L2.85948 12.6628C2.85207 12.7052 2.85669 12.7488 2.87282 12.7888C2.88896 12.8287 2.91596 12.8633 2.95077 12.8886C2.98557 12.914 3.02678 12.9291 3.06973 12.9322C3.11268 12.9353 3.15564 12.9263 3.19373 12.9063L6.99998 10.9045L10.8062 12.9063C10.8443 12.9262 10.8871 12.9352 10.93 12.9321C10.9728 12.929 11.0139 12.914 11.0487 12.8888C11.0835 12.8635 11.1105 12.8291 11.1267 12.7893C11.1429 12.7495 11.1477 12.706 11.1405 12.6637L10.4138 8.4245L13.4931 5.42281C13.5238 5.39272 13.5455 5.35467 13.5557 5.31294C13.566 5.2712 13.5644 5.22744 13.5511 5.18656Z" fill="#FFC045"/>
</svg>
