<svg width="22" height="22" viewBox="0 0 22 22" fill="none" xmlns="http://www.w3.org/2000/svg">
<g clip-path="url(#clip0_23_255)">
<path d="M22 9.62505H19.9375V7.56255H17.875V9.62505H15.8125V11.6875H17.875V13.75H19.9375V11.6875H22V9.62505Z" fill="white"/>
<path d="M7.5625 9.62506V12.1688H11.6875C11.55 13.2688 10.3812 15.4001 7.49375 15.4001C4.95 15.4001 2.8875 13.2688 2.8875 10.7251C2.8875 8.18131 4.95 6.05006 7.49375 6.05006C8.9375 6.05006 9.9 6.66881 10.45 7.21881L12.4438 5.29381C11.1375 4.05631 9.4875 3.36881 7.425 3.36881C3.3 3.23131 0 6.60006 0 10.7251C0 14.8501 3.3 18.1501 7.425 18.1501C12.5813 18.1501 15.1938 13.8876 14.4375 9.62506H7.5625Z" fill="white"/>
</g>
<defs>
<clipPath id="clip0_23_255">
<rect width="22" height="22" fill="white"/>
</clipPath>
</defs>
</svg>
