<svg width="18" height="18" viewBox="0 0 18 18" fill="none" xmlns="http://www.w3.org/2000/svg">
<g opacity="0.5">
<path d="M12.75 7.875V4.5C12.7471 3.50632 12.3511 2.55416 11.6485 1.85152C10.9458 1.14888 9.99368 0.752869 9 0.75V0.75C8.00632 0.752869 7.05416 1.14888 6.35152 1.85152C5.64888 2.55416 5.25287 3.50632 5.25 4.5V7.875" stroke="white" stroke-miterlimit="10"/>
<path d="M15.75 7.875H2.25V17.25H15.75V7.875Z" stroke="white" stroke-miterlimit="10" stroke-linecap="square"/>
<path d="M9 13.125C9.82843 13.125 10.5 12.4534 10.5 11.625C10.5 10.7966 9.82843 10.125 9 10.125C8.17157 10.125 7.5 10.7966 7.5 11.625C7.5 12.4534 8.17157 13.125 9 13.125Z" stroke="white" stroke-miterlimit="10" stroke-linecap="square"/>
<path d="M9 13.125V15" stroke="white" stroke-miterlimit="10" stroke-linecap="square"/>
</g>
</svg>
