<svg width="18" height="18" viewBox="0 0 18 18" fill="none" xmlns="http://www.w3.org/2000/svg">
<path d="M9 0.28125C4.19231 0.28125 0.28125 4.19259 0.28125 9C0.28125 13.8074 4.19231 17.7188 9 17.7188C13.8077 17.7188 17.7188 13.8074 17.7188 9C17.7188 4.19259 13.8077 0.28125 9 0.28125ZM12.5362 9.23034L6.91116 13.1678C6.86306 13.2016 6.80653 13.2188 6.75 13.2188C6.70556 13.2188 6.66113 13.2081 6.62006 13.187C6.52697 13.1386 6.46875 13.0424 6.46875 12.9375V5.0625C6.46875 4.95759 6.52697 4.86141 6.62006 4.81303C6.71287 4.76494 6.82509 4.77197 6.91116 4.83216L12.5362 8.76966C12.6115 8.82225 12.6562 8.90831 12.6562 9C12.6562 9.09169 12.6115 9.17775 12.5362 9.23034Z" fill="white"/>
</svg>
