<svg width="22" height="22" viewBox="0 0 22 22" fill="none" xmlns="http://www.w3.org/2000/svg">
<g opacity="0.3">
<path d="M14.2013 11.8741C13.2543 12.4094 12.1632 12.7187 11 12.7187C9.83675 12.7187 8.74569 12.4094 7.79866 11.8741C3.86787 13.211 1.03125 16.9355 1.03125 21.3125C1.03125 21.5022 1.18525 21.6562 1.375 21.6562H20.625C20.8148 21.6562 20.9688 21.5022 20.9688 21.3125C20.9688 16.9355 18.1321 13.211 14.2013 11.8741Z" fill="white"/>
<path d="M11 0.34375C7.77769 0.34375 5.15625 2.96519 5.15625 6.1875C5.15625 9.40981 7.77769 12.0312 11 12.0312C14.2223 12.0312 16.8438 9.40981 16.8438 6.1875C16.8438 2.96519 14.2223 0.34375 11 0.34375Z" fill="white"/>
</g>
</svg>
